HIERARCHY
ROOT hip
{
	OFFSET 0.000000 0.000000 0.000000 
	CHANNELS 6 Xposition Yposition Zposition Xrotation Zrotation Yrotation
	JOINT abdomen
	{
		OFFSET 0.000000 3.402643 0.000000 
		CHANNELS 3 Xrotation Zrotation Yrotation
		JOINT chest
		{
			OFFSET 0.000000 8.438565 -0.680529 
			CHANNELS 3 Xrotation Zrotation Yrotation
			JOINT neck
			{
				OFFSET 0.000000 10.207942 -0.272212 
				CHANNELS 3 Xrotation Zrotation Yrotation
				JOINT head
				{
					OFFSET 0.000000 3.130431 0.000000 
					CHANNELS 3 Xrotation Zrotation Yrotation
					End Site
					{
						OFFSET 0.000000 3.130435 0.000000 
					}
				}
			}
			JOINT lCollar
			{
				OFFSET 3.470700 6.669187 -0.816635 
				CHANNELS 3 Yrotation Zrotation Xrotation
				JOINT lShldr
				{
					OFFSET 3.198488 0.000000 0.000000 
					CHANNELS 3 Zrotation Yrotation Xrotation
					JOINT lForeArm
					{
						OFFSET 10.139888 0.000000 0.000000 
						CHANNELS 3 Yrotation Zrotation Xrotation
						JOINT lHand
						{
							OFFSET 8.370511 0.000000 0.000000 
							CHANNELS 3 Zrotation Yrotation Xrotation
							End Site
							{
								OFFSET 4.083176 0.000000 0.000000 
							}
						}
					}
				}
			}
			JOINT rCollar
			{
				OFFSET -3.470700 6.669187 -0.816635 
				CHANNELS 3 Yrotation Zrotation Xrotation
				JOINT rShldr
				{
					OFFSET -3.198488 0.000000 0.000000 
					CHANNELS 3 Zrotation Yrotation Xrotation
					JOINT rForeArm
					{
						OFFSET -10.139888 0.000000 0.000000 
						CHANNELS 3 Yrotation Zrotation Xrotation
						JOINT rHand
						{
							OFFSET -8.370511 0.000000 0.000000 
							CHANNELS 3 Zrotation Yrotation Xrotation
							End Site
							{
								OFFSET -4.083176 0.000000 0.000000 
							}
						}
					}
				}
			}
		}
	}
	JOINT lThigh
	{
		OFFSET 5.308129 -1.633274 1.361059 
		CHANNELS 3 Xrotation Zrotation Yrotation
		JOINT lShin
		{
			OFFSET -2.041588 -20.007561 0.000000 
			CHANNELS 3 Xrotation Zrotation Yrotation
			JOINT lFoot
			{
				OFFSET 0.000000 -19.190928 -1.224953 
				CHANNELS 3 Xrotation Yrotation Zrotation
				End Site
				{
					OFFSET 0.000000 -2.449906 4.627600 
				}
			}
		}
	}
	JOINT rThigh
	{
		OFFSET -5.308129 -1.633274 1.361059 
		CHANNELS 3 Xrotation Zrotation Yrotation
		JOINT rShin
		{
			OFFSET 2.041588 -20.007561 0.000000 
			CHANNELS 3 Xrotation Zrotation Yrotation
			JOINT rFoot
			{
				OFFSET 0.000000 -19.190928 -1.224953 
				CHANNELS 3 Xrotation Yrotation Zrotation
				End Site
				{
					OFFSET 0.000000 -2.449906 4.627600 
				}
			}
		}
	}
}
MOTION
Frames: 20
Frame Time: 0.033333
22.164221 54.876930 -7.770603 0.156251 -0.175781 1.298319 0.000000 0.000000 0.000000 -5.019531 0.009728 -0.909056 4.308303 0.023405 -0.718923 5.488271 -0.146268 0.154445 -0.218879 10.564112 -4.084254 -7.590515 4.904214 -24.024530 1.327054 -4.306091 29.377729 0.972621 -2.353150 -3.457446 -1.096928 -10.632470 -4.065365 7.573607 -8.671449 -14.682279 -1.129436 5.102926 19.163710 -1.464618 1.912408 -3.496686 7.763212 9.960910 7.906851 -2.313065 -1.968195 -2.279784 -4.465495 0.251572 -7.005651 6.009815 -7.494480 -7.464466 0.380522 4.058818 -1.080044 -4.698164 -0.191076 4.395421 
22.162333 54.905247 -7.760963 0.195314 -0.214843 1.376184 0.000000 0.000000 0.000000 -5.029297 0.029184 -1.008428 4.192380 -0.009749 -0.796297 5.488279 -0.068258 0.140434 -0.226536 10.340409 -4.099022 -7.233450 4.771986 -23.779905 1.284917 -4.475347 29.469646 1.136964 -2.480185 -3.467226 -1.143774 -10.687123 -4.075729 7.874465 -8.755130 -15.011673 -1.038570 4.976608 18.526621 -1.377464 1.927495 -3.491783 7.281383 10.143490 7.783197 -1.181936 -1.870268 -3.624356 -4.999329 0.287102 -7.097373 5.992269 -7.447322 -7.448695 0.390225 4.058412 -1.050038 -4.462904 -0.187116 4.394021 
22.158054 54.891151 -7.729666 0.185548 -0.234374 1.532404 0.000000 0.000000 0.000000 -5.058595 -0.038910 -1.119603 4.102321 0.081558 -0.952041 5.507811 -0.058508 0.149649 -0.543985 10.716926 -4.098007 -7.592606 4.977473 -23.497564 1.215221 -4.468691 29.698227 1.030003 -2.007263 -3.461359 -1.319368 -10.673283 -4.099493 8.154257 -8.663076 -15.337378 -1.084152 4.950687 18.041021 -1.557947 1.838232 -3.502495 7.448902 10.125381 7.903096 -1.617505 -1.953861 -3.402911 -4.942914 0.267196 -6.796885 6.091662 -7.390413 -7.401786 0.351196 3.978874 -1.354327 -4.781852 -0.188290 4.450776 
22.160446 54.878822 -7.717157 0.175782 -0.185546 1.708383 0.000000 0.000000 0.000000 -5.029304 -0.097280 -1.182845 3.916011 0.079796 -1.130430 5.615231 -0.097523 0.073450 -0.607760 10.770805 -4.088251 -7.567691 4.833680 -23.221008 1.299500 -4.615281 30.024357 1.324564 -1.862225 -3.479107 -1.636360 -10.875405 -4.106580 8.692408 -8.655940 -15.806409 -1.085433 4.649817 18.898994 -1.446657 2.099392 -3.495610 7.730992 9.968545 8.006817 -2.294742 -2.085470 -2.422865 -4.611620 0.243384 -6.365516 6.131892 -7.421831 -7.405367 0.438815 3.950835 -1.415856 -4.869176 -0.229983 4.487153 
22.188259 54.885239 -7.692517 0.146485 -0.126953 1.903951 0.000000 0.000000 0.000000 -5.019542 -0.116738 -1.347168 3.792744 -0.085779 -1.226781 5.546875 -0.029255 0.089453 -0.759078 10.498593 -4.068862 -7.199878 4.784510 -23.505106 1.517487 -4.654941 29.487442 1.102107 -1.582211 -3.466264 -1.797432 -11.068462 -4.101247 8.842015 -8.687339 -15.344378 -1.129063 4.882453 18.647089 -1.405526 1.906221 -3.493201 7.720361 9.927954 8.011074 -2.309485 -2.130070 -2.713264 -4.598265 0.225148 -6.171582 6.252982 -7.512840 -7.535563 0.380216 3.995240 -1.420747 -4.929841 -0.201045 4.510997 
22.218586 54.889519 -7.677152 0.263672 -0.078124 1.903924 0.000000 0.000000 0.000000 -5.117220 -0.204261 -1.319599 3.641176 0.076202 -1.243148 5.312488 -0.155992 0.174986 -0.855985 10.596496 -4.164250 -7.250640 4.822336 -23.605600 1.470298 -4.587133 29.314062 1.435503 -1.434778 -3.486390 -1.910909 -10.715678 -4.204153 8.768185 -8.744747 -15.594704 -1.126746 4.822075 18.224651 -1.456057 1.932496 -3.496431 7.743291 9.892209 7.857439 -2.276574 -2.058479 -3.323618 -4.568642 0.241660 -6.694047 6.179181 -7.635095 -7.629273 0.380345 4.065317 -1.314386 -4.818522 -0.197457 4.500422 
22.244635 54.870010 -7.682600 0.322266 -0.039062 1.845477 0.000000 0.000000 0.000000 -5.126972 -0.155625 -1.314162 3.450638 -0.117873 -1.093561 5.371071 0.214502 0.134370 -0.683675 10.652475 -4.180819 -7.373553 4.735896 -23.367180 1.400722 -4.690777 29.205357 1.018237 -1.489451 -3.461579 -1.789569 -10.989010 -4.212244 9.149183 -9.091470 -15.871316 -1.163321 4.603315 18.736801 -1.490181 2.331552 -3.497715 7.567342 9.774756 7.857925 -2.309464 -2.159393 -2.487378 -4.627699 0.214131 -5.985973 6.053943 -7.675439 -7.574717 0.497084 3.954860 -1.392126 -4.993639 -0.221352 4.609280 
22.265526 54.878063 -7.669665 0.078125 -0.166015 1.718495 0.000000 0.000000 0.000000 -4.951173 -0.048646 -1.353208 3.558144 -0.022614 -1.050228 5.175781 0.029244 0.252155 -0.763082 10.771142 -4.013336 -7.395730 4.930336 -23.448082 1.467975 -4.562851 29.830954 0.504636 -1.569283 -3.440207 -1.648332 -10.913801 -4.026279 9.160512 -9.192860 -15.326208 -1.159278 4.931108 17.615601 -1.571268 1.896122 -3.493302 7.838006 9.869344 8.025078 -2.311970 -2.161926 -2.575178 -4.647467 0.219873 -6.005108 6.311668 -7.532294 -7.478512 0.360762 3.898554 -1.440299 -4.945127 -0.213321 4.654552 
22.320518 54.895176 -7.640456 0.078125 -0.087891 1.669787 0.000000 0.000000 0.000000 -4.960941 -0.068103 -1.322214 3.446713 0.148761 -1.071097 5.302665 -0.370478 0.382695 -0.783746 10.968553 -4.015919 -7.701195 4.986039 -23.551960 1.527833 -4.485005 29.842083 0.758979 -1.407259 -3.455847 -1.686273 -10.881640 -4.036320 9.240501 -9.299490 -15.350437 -1.257375 4.931926 17.632906 -1.682091 1.948057 -3.499993 7.879038 9.745593 7.939080 -2.332030 -2.181247 -2.778505 -4.724753 0.211785 -5.596290 6.361576 -7.699088 -7.597890 0.381004 3.930149 -1.165366 -4.908263 -0.210559 4.697672 
22.377903 54.871395 -7.619717 0.175782 -0.097656 1.601246 0.000000 0.000000 0.000000 -5.019532 -0.029185 -1.276734 3.348596 0.199281 -1.017125 5.146383 -0.438653 0.397593 -0.855855 10.866706 -4.052239 -7.526184 5.064910 -23.592516 1.644959 -4.492560 29.910820 0.190725 -1.226070 -3.431718 -1.587791 -10.986297 -4.083049 9.490629 -9.589755 -15.452675 -1.290125 4.821424 17.836557 -1.755520 2.188164 -3.503791 7.847669 9.743451 7.958342 -2.325412 -2.252924 -2.687879 -4.760694 0.225482 -5.909286 6.307385 -7.772184 -7.655863 0.341159 3.974050 -1.062144 -5.110754 -0.230833 4.744866 
22.422953 54.864223 -7.600853 0.292969 -0.019531 1.611228 0.000000 0.000000 0.000000 -5.136728 -0.106990 -1.367335 3.257501 0.295349 -1.125917 5.400195 -0.633774 0.465155 -0.942478 10.818514 -4.169982 -7.374718 5.294133 -23.196529 1.759248 -4.693858 30.008877 0.205120 -1.303476 -3.432536 -1.702285 -10.985216 -4.193955 9.484575 -9.500007 -15.726577 -1.326814 4.663983 18.457458 -1.492798 2.213987 -3.497922 7.721474 9.606549 7.857885 -2.281611 -2.277733 -2.601676 -4.808319 0.217998 -5.541987 6.196505 -7.895787 -7.691162 0.428817 3.957623 -0.987190 -5.042203 -0.223889 4.789409 
22.441328 54.874920 -7.586394 0.107422 0.068359 1.601702 0.000000 0.000000 0.000000 -4.980489 -0.165389 -1.382071 3.306914 0.216060 -1.105569 5.595536 -0.604635 0.490754 -0.909811 10.871142 -4.034938 -7.802808 5.189136 -23.696398 1.752289 -4.360466 30.313992 -0.430032 -0.979172 -3.413884 -1.820145 -11.096276 -4.069941 9.451408 -9.393959 -15.566513 -1.281692 4.794120 17.951937 -1.788363 2.244857 -3.505898 7.903541 9.486367 7.844848 -2.276405 -2.292605 -2.532805 -4.798031 0.201641 -5.442673 6.429460 -7.972418 -7.730962 0.311994 3.877251 -1.131153 -5.102390 -0.224584 4.874915 
22.486130 54.862835 -7.558105 0.000000 0.078125 1.484375 0.000000 0.000000 0.000000 -4.921884 -0.107026 -1.367737 3.357409 0.187682 -1.074785 5.693192 -0.614441 0.480454 -0.917017 10.703475 -3.984582 -7.572501 5.203477 -23.361923 1.925311 -4.608596 30.312107 -0.383589 -1.103606 -3.416462 -1.794293 -11.216732 -4.017747 9.544301 -9.401153 -15.826472 -1.212844 4.672434 17.697636 -1.821993 2.154742 -3.507836 8.083454 9.412297 7.836737 -2.273447 -2.269805 -2.319163 -4.847925 0.197253 -5.243767 6.577333 -8.071189 -7.773283 0.370139 3.856391 -0.902127 -5.317897 -0.248503 4.984619 
22.529547 54.869633 -7.545986 0.146485 0.156249 1.396910 0.000000 0.000000 0.000000 -5.039079 -0.145918 -1.315259 3.200406 0.184107 -1.136702 6.181381 -0.839094 0.445644 -0.891637 10.635706 -4.077817 -7.599758 5.204548 -23.226725 1.944490 -4.730235 30.105148 -0.612239 -1.205111 -3.402261 -1.781166 -11.088967 -4.121385 9.196321 -9.444846 -15.563812 -1.225037 4.734264 18.101446 -1.822775 2.007935 -3.508074 8.002114 9.291885 7.700265 -2.309742 -2.237850 -1.907825 -4.806101 0.237553 -6.095923 6.420689 -8.236292 -7.892362 0.419539 3.975223 -0.490352 -5.161416 -0.231726 4.904559 
22.554081 54.860073 -7.529312 0.078125 0.156250 1.367427 0.000000 0.000000 0.000000 -4.990245 -0.116743 -1.405822 3.274507 -0.041067 -1.135886 6.181526 -0.556143 0.365319 -0.866420 10.202553 -4.041069 -7.423337 5.284223 -23.179407 1.834532 -4.643465 30.647800 -0.749759 -1.027315 -3.403987 -1.885555 -11.218818 -4.088456 9.219184 -9.217851 -15.877231 -1.246106 4.671556 18.168709 -1.898638 2.287019 -3.512239 8.064071 9.256813 7.675943 -2.295352 -2.253001 -2.161933 -4.882143 0.216500 -5.596914 6.542402 -8.271338 -7.916589 0.370685 3.990186 -0.455083 -5.292573 -0.242721 4.933604 
22.567297 54.862461 -7.521220 0.205078 0.078125 1.328418 0.000000 0.000000 0.000000 -5.097663 -0.097270 -1.446401 3.205759 -0.007986 -1.247312 6.445188 -0.614798 0.316137 -0.783006 10.160470 -4.148401 -7.372943 5.216737 -23.116814 1.794343 -4.687848 30.705328 -0.881003 -1.123039 -3.395547 -1.888918 -11.382879 -4.184819 9.280159 -9.191196 -15.429765 -1.289131 4.889716 17.839418 -2.115886 1.999715 -3.525334 7.722274 9.343690 7.653375 -1.746468 -2.249725 -2.135222 -5.222323 0.234180 -5.839434 6.380017 -8.205789 -7.849000 0.351154 3.960046 -0.621993 -5.213100 -0.233458 4.978956 
22.576231 54.882973 -7.499260 0.175781 0.068359 1.328346 0.000000 0.000000 0.000000 -5.078151 -0.184819 -1.458186 3.312077 -0.023382 -1.452922 6.220645 -0.400044 0.065475 -0.799411 10.651096 -4.138305 -7.972858 5.162245 -23.313648 1.696910 -4.488522 31.029173 -1.347504 -1.169759 -3.376406 -1.719275 -11.502795 -4.149890 9.663802 -9.399507 -15.920254 -1.225401 4.618266 17.930632 -2.046737 2.307278 -3.520867 7.366530 9.320551 7.675445 -1.133312 -2.328681 -1.171412 -5.088967 0.259695 -6.261521 6.502315 -8.251024 -7.923857 0.204564 4.020746 -0.477439 -5.208209 -0.245628 4.962995 
22.594604 54.864471 -7.485883 0.224610 0.068359 1.240514 0.000000 0.000000 0.000000 -5.175828 -0.243145 -1.413523 3.362238 -0.138146 -1.605226 6.230455 -0.195145 -0.157929 -0.794740 10.574713 -4.220138 -7.822523 5.184901 -23.081785 1.566583 -4.533238 31.352884 -0.945781 -1.185518 -3.391519 -1.703485 -11.267641 -4.232602 9.274438 -9.366007 -15.576974 -1.222649 4.777556 17.888258 -1.945607 2.254786 -3.515120 7.742922 9.316027 7.659642 -1.649782 -2.260934 -1.642178 -5.166459 0.272737 -6.384784 6.432604 -8.240024 -7.892626 0.224248 3.968597 -0.621591 -5.188311 -0.237095 5.019489 
22.602783 54.857044 -7.483442 0.498047 0.000000 1.171877 0.000000 0.000000 0.000000 -5.390695 -0.291673 -1.368961 3.097359 -0.130379 -1.730252 6.601550 -0.204953 -0.295570 -0.812295 10.708730 -4.411880 -7.912982 5.241782 -23.203972 1.508128 -4.412306 31.537811 -0.590461 -1.575566 -3.393006 -1.963067 -11.088169 -4.454981 9.143073 -9.074457 -15.519672 -1.212333 4.851001 17.958900 -1.777415 2.225959 -3.505320 7.593835 9.293215 7.585439 -2.018979 -2.230007 -1.651286 -5.089421 0.224688 -5.543802 6.121768 -8.202498 -7.757731 0.321189 3.944839 -0.487240 -5.224259 -0.267483 5.038844 
22.586174 54.855412 -7.470078 0.097658 -0.341796 1.112641 0.000000 0.000000 0.000000 -5.078135 -0.116728 -1.356815 3.264769 -0.038493 -1.804546 6.542953 -0.224464 -0.421612 -0.929706 10.835546 -4.112150 -7.753695 5.214948 -23.048384 1.488364 -4.522384 31.345701 -0.649503 -1.402949 -3.399495 -1.905810 -10.795197 -4.168793 9.027309 -9.064678 -15.650383 -1.236702 4.764060 18.396500 -1.635511 2.146580 -3.496858 7.886356 9.703332 7.963454 -1.639716 -2.211432 -1.976545 -5.334857 0.264392 -6.168463 6.590529 -7.812008 -7.581915 0.068227 3.965968 -0.496251 -5.064403 -0.245073 4.971756 
